<svg width="189" height="170" viewBox="0 0 189 170" fill="none" xmlns="http://www.w3.org/2000/svg">
<path fill-rule="evenodd" clip-rule="evenodd" d="M90.012 62.3854C86.7897 62.5803 79.3585 63.7501 75.4128 66.8693C73.9661 67.8115 70.5398 70.4955 68.4092 73.6927L55.3883 90.6537L46.0172 100.986L42.6633 104.885L38.5203 109.272L34.18 112.976L31.2207 115.803C27.9655 119.084 21.534 127.676 21.0605 136.176C20.5343 140.172 21.1197 150.212 27.6696 158.4C30.7275 162.039 39.3884 169.415 49.5683 169.805C50.9164 169.903 54.7767 169.903 59.4326 169.123C63.214 168.213 70.4807 166.354 72.0589 165.419C76.3992 163.924 86.954 160.974 94.4509 161.13C101.948 160.974 112.503 163.924 116.843 165.419C118.421 166.354 125.688 168.213 129.469 169.123C134.125 169.903 137.985 169.903 139.333 169.805C149.513 169.415 158.174 162.039 161.232 158.4C167.782 150.212 168.367 140.172 167.841 136.176C167.368 127.676 160.936 119.084 157.681 115.803L154.722 112.976L150.381 109.272L146.238 104.885L142.885 100.986L133.513 90.6537L120.493 73.6927C118.362 70.4955 114.936 67.8115 113.489 66.8693C109.543 63.7501 102.112 62.5803 98.8898 62.3854H94.4509H90.012Z" fill="#6F1D1B"/>
<path d="M84.2037 88.1193C83.8091 91.6284 85.0256 93.3505 85.6833 93.7729C84.1839 98.7587 86.3079 101.894 87.5575 102.838C82.0335 109.857 81.4087 118.662 81.8362 122.041C78.0483 126.876 77.6932 132.569 77.9892 134.811C78.6994 138.866 80.6525 140.919 81.5403 141.439C84.3812 143.701 88.3794 144.721 90.0236 144.948C91.6808 145.26 101.331 144.967 106 145C107.21 145.008 108.186 144.638 108.568 144.5C112.672 143.018 114.816 141.732 115.375 141.049C116.716 140.192 117.644 138.287 117.94 137.443C118.334 136.273 118.104 134.161 117.94 133.251C117.861 132.003 116.197 129.807 115.375 128.865C114.507 127.851 113.698 126.298 113.402 125.648C113.086 125.102 113.007 123.991 113.007 123.503C113.007 122.646 113.533 122.171 113.797 122.041C114.112 121.807 115.243 121.944 115.769 122.041C116.164 122.041 116.789 122.626 117.052 122.919C117.92 123.62 118.334 123.601 118.433 123.503C118.906 123.503 118.893 122.529 118.827 122.041C118.433 120.716 116.624 119.864 115.769 119.604C113.954 119.37 112.974 119.507 112.711 119.604C110.739 119.682 109.456 121.944 109.16 123.211C108.864 124.478 109.16 126.038 109.16 126.038C109.358 127.5 110.081 129.385 110.541 130.132C111.435 131.302 111.769 133.349 111.824 134.226C111.666 136.955 109.588 138.482 108.568 138.905C109.221 137.538 109.612 136.161 109.802 134.811C110.576 129.304 108.016 124.233 106.3 122.041C106.931 112.528 103.077 105.47 101.072 103.131C102.255 102.507 102.946 101.116 103.143 100.499C104.169 97.8475 103.57 95.3 103.143 94.3578C103.774 93.9679 104.116 92.9931 104.327 92.2133C104.721 90.7511 104.721 89.159 104.721 87.9243C104.643 87.3784 104.425 87.047 104.327 86.9495C103.617 86.7156 103.242 86.8521 103.143 86.9495C101.644 87.9633 99.0329 89.2564 97.915 89.7764C95.232 88.3727 92.1938 89.0615 91.01 89.5814C88.0113 87.5539 85.9134 86.7546 85.2887 86.6571C84.3418 86.8131 84.1707 87.6968 84.2037 88.1193Z" fill="white"/>
<path d="M7.69414 59.5683C-3.19605 68.3802 1.05217 82.6703 4.53757 88.7139C15.4277 106.884 29.3299 104.603 34.9196 101.191C47.3881 90.8974 40.1147 74.4173 34.9196 67.4639C23.1614 54.207 11.87 56.6765 7.69414 59.5683Z" fill="#6F1D1B"/>
<path d="M0.591858 48.6509C0.118372 48.3389 0 48.7809 0 49.0408C0.394572 50.2105 0.822026 52.6474 0.98643 53.7197C0.98643 54.7334 1.70981 56.7414 2.0715 57.6187C2.78173 59.1784 4.14301 59.3733 4.73486 59.2759C6.23424 59.0419 7.92433 56.969 8.58194 55.9616C8.42411 54.8699 7.00365 53.5573 6.31315 53.0373C5.20835 52.5694 3.81419 51.4777 3.25522 50.9903C2.70282 50.7564 1.24948 49.3332 0.591858 48.6509Z" fill="#6F1D1B"/>
<path d="M181.285 59.5683C192.176 68.3802 187.927 82.6703 184.442 88.7139C173.552 106.884 159.65 104.603 154.06 101.191C141.591 90.8974 148.865 74.4173 154.06 67.4639C165.818 54.207 177.109 56.6765 181.285 59.5683Z" fill="#6F1D1B"/>
<path d="M188.388 48.6509C188.861 48.3389 188.979 48.7809 188.979 49.0408C188.585 50.2105 188.157 52.6474 187.993 53.7197C187.993 54.7334 187.27 56.7414 186.908 57.6187C186.198 59.1784 184.836 59.3733 184.245 59.2759C182.745 59.0419 181.055 56.969 180.398 55.9616C180.555 54.8699 181.976 53.5573 182.666 53.0373C183.771 52.5694 185.165 51.4777 185.724 50.9903C186.277 50.7564 187.73 49.3332 188.388 48.6509Z" fill="#6F1D1B"/>
<path d="M54.0686 12.8293C40.2947 18.1991 40.8737 33.1873 42.8849 40.0101C49.3618 60.6405 64.5198 62.4275 71.2891 60.7421C87.1144 54.3969 83.9636 36.4313 80.4101 28.2417C71.6965 12.0966 59.2184 11.2396 54.0686 12.8293Z" fill="#6F1D1B"/>
<path d="M49.5922 0.273028C49.1814 -0.163276 48.938 0.228619 48.8677 0.479104C48.964 1.71938 48.7521 4.19022 48.6341 5.2706C48.3599 6.24747 48.5736 8.38982 48.7146 9.3389C49.0358 11.0454 50.4068 11.6235 51.0523 11.6992C52.6838 11.9035 55.0122 10.3903 55.9724 9.60821C56.1026 8.51093 54.972 6.83883 54.3902 6.13994C53.3611 5.37238 52.1981 3.92071 51.7453 3.29082C51.2308 2.90705 50.0956 1.11905 49.5922 0.273028Z" fill="#6F1D1B"/>
<path d="M137.105 12.8293C150.879 18.1991 150.3 33.1873 148.288 40.0101C141.812 60.6405 126.654 62.4275 119.884 60.7421C104.059 54.3969 107.21 36.4313 110.763 28.2417C119.477 12.0966 131.955 11.2396 137.105 12.8293Z" fill="#6F1D1B"/>
<path d="M141.581 0.273028C141.992 -0.163276 142.235 0.228619 142.306 0.479104C142.209 1.71938 142.421 4.19022 142.539 5.2706C142.813 6.24747 142.6 8.38982 142.459 9.3389C142.138 11.0454 140.767 11.6235 140.121 11.6992C138.49 11.9035 136.161 10.3903 135.201 9.60821C135.071 8.51093 136.202 6.83883 136.783 6.13994C137.812 5.37238 138.975 3.92071 139.428 3.29082C139.943 2.90705 141.078 1.11905 141.581 0.273028Z" fill="#6F1D1B"/>
</svg>
